<mxfile host="app.diagrams.net" modified="2023-05-03T09:11:29.478Z" agent="Mozilla/5.0 (Windows NT 10.0; Win64; x64; rv:109.0) Gecko/20100101 Firefox/112.0" etag="8XLdft60kmeE1OVgWzGZ" version="21.2.6" type="device">
  <diagram name="Page-1" id="3PeM8CwLoafJNvovPAr7">
    <mxGraphModel dx="1195" dy="628" grid="1" gridSize="10" guides="1" tooltips="1" connect="1" arrows="1" fold="1" page="1" pageScale="1" pageWidth="850" pageHeight="1100" math="0" shadow="0">
      <root>
        <mxCell id="0" />
        <mxCell id="1" parent="0" />
        <mxCell id="PT2bCh76cmc1cAvOyc42-25" style="edgeStyle=orthogonalEdgeStyle;rounded=0;orthogonalLoop=1;jettySize=auto;html=1;exitX=0.5;exitY=1;exitDx=0;exitDy=0;entryX=0.5;entryY=0;entryDx=0;entryDy=0;" edge="1" parent="1" source="PT2bCh76cmc1cAvOyc42-1" target="PT2bCh76cmc1cAvOyc42-22">
          <mxGeometry relative="1" as="geometry" />
        </mxCell>
        <mxCell id="PT2bCh76cmc1cAvOyc42-1" value="utente" style="swimlane;fontStyle=0;childLayout=stackLayout;horizontal=1;startSize=30;horizontalStack=0;resizeParent=1;resizeParentMax=0;resizeLast=0;collapsible=1;marginBottom=0;whiteSpace=wrap;html=1;" vertex="1" parent="1">
          <mxGeometry width="150" height="120" as="geometry">
            <mxRectangle width="70" height="30" as="alternateBounds" />
          </mxGeometry>
        </mxCell>
        <mxCell id="PT2bCh76cmc1cAvOyc42-2" value="&lt;div&gt;nome:String &lt;br&gt;&lt;/div&gt;" style="text;strokeColor=none;fillColor=none;align=left;verticalAlign=middle;spacingLeft=4;spacingRight=4;overflow=hidden;points=[[0,0.5],[1,0.5]];portConstraint=eastwest;rotatable=0;whiteSpace=wrap;html=1;" vertex="1" parent="PT2bCh76cmc1cAvOyc42-1">
          <mxGeometry y="30" width="150" height="30" as="geometry" />
        </mxCell>
        <mxCell id="PT2bCh76cmc1cAvOyc42-3" value="cognome:String" style="text;strokeColor=none;fillColor=none;align=left;verticalAlign=middle;spacingLeft=4;spacingRight=4;overflow=hidden;points=[[0,0.5],[1,0.5]];portConstraint=eastwest;rotatable=0;whiteSpace=wrap;html=1;" vertex="1" parent="PT2bCh76cmc1cAvOyc42-1">
          <mxGeometry y="60" width="150" height="30" as="geometry" />
        </mxCell>
        <mxCell id="PT2bCh76cmc1cAvOyc42-4" value="&lt;div&gt;password:string&lt;/div&gt;&lt;div&gt;email:string&lt;br&gt;&lt;/div&gt;" style="text;strokeColor=none;fillColor=none;align=left;verticalAlign=middle;spacingLeft=4;spacingRight=4;overflow=hidden;points=[[0,0.5],[1,0.5]];portConstraint=eastwest;rotatable=0;whiteSpace=wrap;html=1;" vertex="1" parent="PT2bCh76cmc1cAvOyc42-1">
          <mxGeometry y="90" width="150" height="30" as="geometry" />
        </mxCell>
        <mxCell id="PT2bCh76cmc1cAvOyc42-5" value="alunno" style="swimlane;fontStyle=0;childLayout=stackLayout;horizontal=1;startSize=30;horizontalStack=0;resizeParent=1;resizeParentMax=0;resizeLast=0;collapsible=1;marginBottom=0;whiteSpace=wrap;html=1;" vertex="1" parent="1">
          <mxGeometry x="210" width="150" height="60" as="geometry">
            <mxRectangle x="210" width="80" height="30" as="alternateBounds" />
          </mxGeometry>
        </mxCell>
        <mxCell id="PT2bCh76cmc1cAvOyc42-6" value="idStudente:int" style="text;strokeColor=none;fillColor=none;align=left;verticalAlign=middle;spacingLeft=4;spacingRight=4;overflow=hidden;points=[[0,0.5],[1,0.5]];portConstraint=eastwest;rotatable=0;whiteSpace=wrap;html=1;" vertex="1" parent="PT2bCh76cmc1cAvOyc42-5">
          <mxGeometry y="30" width="150" height="30" as="geometry" />
        </mxCell>
        <mxCell id="PT2bCh76cmc1cAvOyc42-9" style="edgeStyle=orthogonalEdgeStyle;rounded=0;orthogonalLoop=1;jettySize=auto;html=1;exitX=1;exitY=0.5;exitDx=0;exitDy=0;entryX=0;entryY=0.5;entryDx=0;entryDy=0;" edge="1" parent="1" source="PT2bCh76cmc1cAvOyc42-2" target="PT2bCh76cmc1cAvOyc42-6">
          <mxGeometry relative="1" as="geometry" />
        </mxCell>
        <mxCell id="PT2bCh76cmc1cAvOyc42-10" style="edgeStyle=orthogonalEdgeStyle;rounded=0;orthogonalLoop=1;jettySize=auto;html=1;exitX=0;exitY=0.5;exitDx=0;exitDy=0;entryX=1;entryY=0.5;entryDx=0;entryDy=0;" edge="1" parent="1" source="PT2bCh76cmc1cAvOyc42-6" target="PT2bCh76cmc1cAvOyc42-2">
          <mxGeometry relative="1" as="geometry" />
        </mxCell>
        <mxCell id="PT2bCh76cmc1cAvOyc42-11" value="&lt;div&gt;getid();int&lt;/div&gt;" style="rounded=0;whiteSpace=wrap;html=1;" vertex="1" parent="1">
          <mxGeometry x="210" y="60" width="150" height="40" as="geometry" />
        </mxCell>
        <mxCell id="PT2bCh76cmc1cAvOyc42-12" value="insegnante" style="swimlane;fontStyle=0;childLayout=stackLayout;horizontal=1;startSize=30;horizontalStack=0;resizeParent=1;resizeParentMax=0;resizeLast=0;collapsible=1;marginBottom=0;whiteSpace=wrap;html=1;" vertex="1" parent="1">
          <mxGeometry x="210" y="110" width="150" height="60" as="geometry">
            <mxRectangle x="210" y="110" width="100" height="30" as="alternateBounds" />
          </mxGeometry>
        </mxCell>
        <mxCell id="PT2bCh76cmc1cAvOyc42-13" value="idInsegnante:int" style="text;strokeColor=none;fillColor=none;align=left;verticalAlign=middle;spacingLeft=4;spacingRight=4;overflow=hidden;points=[[0,0.5],[1,0.5]];portConstraint=eastwest;rotatable=0;whiteSpace=wrap;html=1;" vertex="1" parent="PT2bCh76cmc1cAvOyc42-12">
          <mxGeometry y="30" width="150" height="30" as="geometry" />
        </mxCell>
        <mxCell id="PT2bCh76cmc1cAvOyc42-14" value="&lt;div&gt;getid();int&lt;/div&gt;" style="rounded=0;whiteSpace=wrap;html=1;" vertex="1" parent="1">
          <mxGeometry x="210" y="170" width="150" height="40" as="geometry" />
        </mxCell>
        <mxCell id="PT2bCh76cmc1cAvOyc42-15" style="edgeStyle=orthogonalEdgeStyle;rounded=0;orthogonalLoop=1;jettySize=auto;html=1;exitX=1;exitY=0.5;exitDx=0;exitDy=0;entryX=-0.02;entryY=0.589;entryDx=0;entryDy=0;entryPerimeter=0;" edge="1" parent="1" source="PT2bCh76cmc1cAvOyc42-3" target="PT2bCh76cmc1cAvOyc42-13">
          <mxGeometry relative="1" as="geometry">
            <Array as="points">
              <mxPoint x="170" y="75" />
              <mxPoint x="170" y="155" />
              <mxPoint x="207" y="155" />
            </Array>
          </mxGeometry>
        </mxCell>
        <mxCell id="PT2bCh76cmc1cAvOyc42-16" style="edgeStyle=orthogonalEdgeStyle;rounded=0;orthogonalLoop=1;jettySize=auto;html=1;exitX=0;exitY=0.5;exitDx=0;exitDy=0;entryX=1;entryY=0.5;entryDx=0;entryDy=0;" edge="1" parent="1" source="PT2bCh76cmc1cAvOyc42-13" target="PT2bCh76cmc1cAvOyc42-3">
          <mxGeometry relative="1" as="geometry">
            <Array as="points">
              <mxPoint x="170" y="155" />
              <mxPoint x="170" y="75" />
            </Array>
          </mxGeometry>
        </mxCell>
        <mxCell id="PT2bCh76cmc1cAvOyc42-17" value="alunni" style="swimlane;fontStyle=0;childLayout=stackLayout;horizontal=1;startSize=30;horizontalStack=0;resizeParent=1;resizeParentMax=0;resizeLast=0;collapsible=1;marginBottom=0;whiteSpace=wrap;html=1;" vertex="1" parent="1">
          <mxGeometry x="400" width="150" height="60" as="geometry" />
        </mxCell>
        <mxCell id="PT2bCh76cmc1cAvOyc42-21" style="edgeStyle=orthogonalEdgeStyle;rounded=0;orthogonalLoop=1;jettySize=auto;html=1;exitX=0;exitY=0.5;exitDx=0;exitDy=0;" edge="1" parent="PT2bCh76cmc1cAvOyc42-17" source="PT2bCh76cmc1cAvOyc42-18">
          <mxGeometry relative="1" as="geometry">
            <mxPoint x="-40" y="45" as="targetPoint" />
          </mxGeometry>
        </mxCell>
        <mxCell id="PT2bCh76cmc1cAvOyc42-18" value="alunno[];" style="text;strokeColor=none;fillColor=none;align=left;verticalAlign=middle;spacingLeft=4;spacingRight=4;overflow=hidden;points=[[0,0.5],[1,0.5]];portConstraint=eastwest;rotatable=0;whiteSpace=wrap;html=1;" vertex="1" parent="PT2bCh76cmc1cAvOyc42-17">
          <mxGeometry y="30" width="150" height="30" as="geometry" />
        </mxCell>
        <mxCell id="PT2bCh76cmc1cAvOyc42-29" style="edgeStyle=orthogonalEdgeStyle;rounded=0;orthogonalLoop=1;jettySize=auto;html=1;exitX=0.5;exitY=1;exitDx=0;exitDy=0;entryX=0.5;entryY=0;entryDx=0;entryDy=0;" edge="1" parent="1" source="PT2bCh76cmc1cAvOyc42-19" target="PT2bCh76cmc1cAvOyc42-26">
          <mxGeometry relative="1" as="geometry" />
        </mxCell>
        <mxCell id="PT2bCh76cmc1cAvOyc42-19" value="" style="rounded=0;whiteSpace=wrap;html=1;" vertex="1" parent="1">
          <mxGeometry x="400" y="60" width="150" height="40" as="geometry" />
        </mxCell>
        <mxCell id="PT2bCh76cmc1cAvOyc42-20" style="edgeStyle=orthogonalEdgeStyle;rounded=0;orthogonalLoop=1;jettySize=auto;html=1;exitX=1;exitY=0.5;exitDx=0;exitDy=0;entryX=0;entryY=0.5;entryDx=0;entryDy=0;" edge="1" parent="1" source="PT2bCh76cmc1cAvOyc42-6" target="PT2bCh76cmc1cAvOyc42-18">
          <mxGeometry relative="1" as="geometry" />
        </mxCell>
        <mxCell id="PT2bCh76cmc1cAvOyc42-22" value="segreteria" style="swimlane;fontStyle=0;childLayout=stackLayout;horizontal=1;startSize=30;horizontalStack=0;resizeParent=1;resizeParentMax=0;resizeLast=0;collapsible=1;marginBottom=0;whiteSpace=wrap;html=1;" vertex="1" parent="1">
          <mxGeometry y="150" width="150" height="60" as="geometry" />
        </mxCell>
        <mxCell id="PT2bCh76cmc1cAvOyc42-23" value="idSegreteria:int" style="text;strokeColor=none;fillColor=none;align=left;verticalAlign=middle;spacingLeft=4;spacingRight=4;overflow=hidden;points=[[0,0.5],[1,0.5]];portConstraint=eastwest;rotatable=0;whiteSpace=wrap;html=1;" vertex="1" parent="PT2bCh76cmc1cAvOyc42-22">
          <mxGeometry y="30" width="150" height="30" as="geometry" />
        </mxCell>
        <mxCell id="PT2bCh76cmc1cAvOyc42-24" value="&lt;div&gt;getid();int&lt;/div&gt;" style="rounded=0;whiteSpace=wrap;html=1;" vertex="1" parent="1">
          <mxGeometry y="210" width="150" height="40" as="geometry" />
        </mxCell>
        <mxCell id="PT2bCh76cmc1cAvOyc42-26" value="classe" style="swimlane;fontStyle=0;childLayout=stackLayout;horizontal=1;startSize=30;horizontalStack=0;resizeParent=1;resizeParentMax=0;resizeLast=0;collapsible=1;marginBottom=0;whiteSpace=wrap;html=1;" vertex="1" parent="1">
          <mxGeometry x="400" y="120" width="150" height="140" as="geometry" />
        </mxCell>
        <mxCell id="PT2bCh76cmc1cAvOyc42-30" value="insegante:insegante" style="text;strokeColor=none;fillColor=none;align=left;verticalAlign=middle;spacingLeft=4;spacingRight=4;overflow=hidden;points=[[0,0.5],[1,0.5]];portConstraint=eastwest;rotatable=0;whiteSpace=wrap;html=1;" vertex="1" parent="PT2bCh76cmc1cAvOyc42-26">
          <mxGeometry y="30" width="150" height="40" as="geometry" />
        </mxCell>
        <mxCell id="PT2bCh76cmc1cAvOyc42-31" value="alunni:alunno[];" style="text;strokeColor=none;fillColor=none;align=left;verticalAlign=middle;spacingLeft=4;spacingRight=4;overflow=hidden;points=[[0,0.5],[1,0.5]];portConstraint=eastwest;rotatable=0;whiteSpace=wrap;html=1;" vertex="1" parent="PT2bCh76cmc1cAvOyc42-26">
          <mxGeometry y="70" width="150" height="30" as="geometry" />
        </mxCell>
        <mxCell id="PT2bCh76cmc1cAvOyc42-27" value="voti[];" style="text;strokeColor=none;fillColor=none;align=left;verticalAlign=middle;spacingLeft=4;spacingRight=4;overflow=hidden;points=[[0,0.5],[1,0.5]];portConstraint=eastwest;rotatable=0;whiteSpace=wrap;html=1;" vertex="1" parent="PT2bCh76cmc1cAvOyc42-26">
          <mxGeometry y="100" width="150" height="40" as="geometry" />
        </mxCell>
        <mxCell id="PT2bCh76cmc1cAvOyc42-34" value="voto" style="swimlane;fontStyle=0;childLayout=stackLayout;horizontal=1;startSize=30;horizontalStack=0;resizeParent=1;resizeParentMax=0;resizeLast=0;collapsible=1;marginBottom=0;whiteSpace=wrap;html=1;" vertex="1" parent="1">
          <mxGeometry x="210" y="230" width="150" height="80" as="geometry" />
        </mxCell>
        <mxCell id="PT2bCh76cmc1cAvOyc42-35" value="voto:int" style="text;strokeColor=none;fillColor=none;align=left;verticalAlign=middle;spacingLeft=4;spacingRight=4;overflow=hidden;points=[[0,0.5],[1,0.5]];portConstraint=eastwest;rotatable=0;whiteSpace=wrap;html=1;" vertex="1" parent="PT2bCh76cmc1cAvOyc42-34">
          <mxGeometry y="30" width="150" height="30" as="geometry" />
        </mxCell>
        <mxCell id="PT2bCh76cmc1cAvOyc42-37" value="materia:string" style="text;strokeColor=none;fillColor=none;align=left;verticalAlign=middle;spacingLeft=4;spacingRight=4;overflow=hidden;points=[[0,0.5],[1,0.5]];portConstraint=eastwest;rotatable=0;whiteSpace=wrap;html=1;" vertex="1" parent="PT2bCh76cmc1cAvOyc42-34">
          <mxGeometry y="60" width="150" height="20" as="geometry" />
        </mxCell>
        <mxCell id="PT2bCh76cmc1cAvOyc42-36" value="" style="rounded=0;whiteSpace=wrap;html=1;" vertex="1" parent="1">
          <mxGeometry x="210" y="310" width="150" height="40" as="geometry" />
        </mxCell>
        <mxCell id="PT2bCh76cmc1cAvOyc42-47" style="edgeStyle=orthogonalEdgeStyle;rounded=0;orthogonalLoop=1;jettySize=auto;html=1;exitX=0.5;exitY=0;exitDx=0;exitDy=0;entryX=0.502;entryY=1;entryDx=0;entryDy=0;entryPerimeter=0;" edge="1" parent="1" source="PT2bCh76cmc1cAvOyc42-39" target="PT2bCh76cmc1cAvOyc42-27">
          <mxGeometry relative="1" as="geometry" />
        </mxCell>
        <mxCell id="PT2bCh76cmc1cAvOyc42-39" value="voti" style="swimlane;fontStyle=0;childLayout=stackLayout;horizontal=1;startSize=30;horizontalStack=0;resizeParent=1;resizeParentMax=0;resizeLast=0;collapsible=1;marginBottom=0;whiteSpace=wrap;html=1;" vertex="1" parent="1">
          <mxGeometry x="400" y="280" width="150" height="60" as="geometry" />
        </mxCell>
        <mxCell id="PT2bCh76cmc1cAvOyc42-40" value="voti;voto[]" style="text;strokeColor=none;fillColor=none;align=left;verticalAlign=middle;spacingLeft=4;spacingRight=4;overflow=hidden;points=[[0,0.5],[1,0.5]];portConstraint=eastwest;rotatable=0;whiteSpace=wrap;html=1;" vertex="1" parent="PT2bCh76cmc1cAvOyc42-39">
          <mxGeometry y="30" width="150" height="30" as="geometry" />
        </mxCell>
        <mxCell id="PT2bCh76cmc1cAvOyc42-42" value="" style="rounded=0;whiteSpace=wrap;html=1;" vertex="1" parent="1">
          <mxGeometry x="400" y="340" width="150" height="40" as="geometry" />
        </mxCell>
        <mxCell id="PT2bCh76cmc1cAvOyc42-46" style="edgeStyle=orthogonalEdgeStyle;rounded=0;orthogonalLoop=1;jettySize=auto;html=1;exitX=1;exitY=0.5;exitDx=0;exitDy=0;entryX=0;entryY=0.5;entryDx=0;entryDy=0;" edge="1" parent="1" source="PT2bCh76cmc1cAvOyc42-37" target="PT2bCh76cmc1cAvOyc42-40">
          <mxGeometry relative="1" as="geometry" />
        </mxCell>
      </root>
    </mxGraphModel>
  </diagram>
</mxfile>
